# xmcd
#
# Track frame offsets:
#	150
#	22668
#	42185
#	63548
#	84592
#	106974
#	127024
#	145726
#	167838
#	192967
#	210454
#	229995
#	250319
#	269154
#	288441
#	308445
#
# Disc length: 4378 seconds
#
# Revision: 1
# Processed by: cddbd v1.5.1PL0 Copyright (c) Steve Scherf et al.
# Submitted via: CDex 1.50Beta5
#
DISCID=e4111810
DTITLE=椎名へきる - b-side you〜A-SIDE COLLECTION〜
DYEAR=1900
DGENRE=Pop
TTITLE0=せつない笑顔
TTITLE1=ラッキーDAY
TTITLE2=目を覚ませ、男なら
TTITLE3=空をあきらめない
TTITLE4=だめよ!だめよ!だめよ!!
TTITLE5=色褪せない瞬間
TTITLE6=MOON LIGHT
TTITLE7=風が吹く丘
TTITLE8=漂流者(Duet with 真矢)
TTITLE9=Graduater
TTITLE10=抱きしめて
TTITLE11=この世で一番大切なもの
TTITLE12=Everlasting Train -終わりなき旅人-
TTITLE13=赤い華 -You're gonnna change to the flower-
TTITLE14=BESIDE YOU
TTITLE15=夢まで走ろう -ウルトラマンカンパニーテーマ曲-
EXTD=
EXTT0=
EXTT1=
EXTT2=
EXTT3=
EXTT4=
EXTT5=
EXTT6=
EXTT7=
EXTT8=
EXTT9=
EXTT10=
EXTT11=
EXTT12=
EXTT13=
EXTT14=
EXTT15=
PLAYORDER=
